<svg version="1" xmlns="http://www.w3.org/2000/svg" width="1866.667" height="1866.667" viewBox="0 0 1400.000000 1400.000000"><path d="M863.6 179.5c-13.5 5.5-32.2 26.3-51.6 57.6-8.2 13.2-9.7 15.7-20 34.4-7 12.6-31.6 62.1-38.3 77-2.4 5.5-5.7 12.7-7.2 16-1.5 3.3-7 16.1-12.2 28.5-5.2 12.4-10.2 24-11 25.8-.9 1.8-1.4 3.5-1.1 3.7.2.2 3.7-6.6 7.8-15.3 16.1-33.9 41.2-83.3 56.2-110.1 42.6-76.3 78.2-118 90.9-106.5 2.3 2.1 5.5 10.4 6.4 16.9.4 2.8.9 5.9 1.1 7 .5 2.4.4 32.6-.1 37.5-.2 1.9-.6 7.3-1 12-.3 4.7-.8 9.2-1 10-.2.8-.6 4.2-1 7.5-.3 3.3-.8 6.7-1 7.5-.2.8-.6 3.7-1 6.5-.3 2.7-1 7.5-1.5 10.5s-1.2 7.1-1.4 9c-.3 1.9-1.2 7.3-2.1 12-.9 4.7-2 11-2.5 14-.6 3-1.2 6.4-1.4 7.5-.2 1.1-1.4 6.5-2.5 12-4.2 20.2-5.3 25.4-9.7 44.5-8.9 38.7-30.2 119.5-38.5 146-1.1 3.6-2.2 7.2-2.4 8-.2.8-2.6 9.1-5.5 18.5-2.8 9.3-5.6 18.6-6.2 20.5-.6 1.9-1.2 3.7-1.4 3.9-.1.2-2.2-1.8-4.6-4.4-7.5-8.2-24.2-20.9-33.4-25.3-2.6-1.2-5.3-4.8-12.5-16.6-11.4-18.6-36.8-57.2-47.9-72.6-9.6-13.4-24.2-33.3-25-34-.3-.3-5-6.1-10.5-13-18.5-23.4-32.9-39.5-53.4-60-43.2-43.2-74.8-62.9-100.1-62.4-18.5.3-31.3 13.3-34.8 35.4-.9 6.1-.9 28.7.1 38 1.1 9.7 4.8 28.4 8.7 43.5 3.4 13.2 15.1 49 20 61.2 1.8 4.3 4.1 10 5.2 12.8 4.6 11.6 16.1 37.5 16.4 37.2.2-.2-1.2-4.8-3.2-10.3-3.7-10.3-4.7-13.3-10.9-32.4-3.8-11.9-9.3-30.1-10-33.4-.3-1-1.1-4.2-1.9-7-1.3-4.6-5-20.4-9.1-39.6-.1-.3-.5-3.2-1-6.5s-.9-6.2-1-6.5c-.2-.7-1.7-13.7-2.1-18-.5-5.1-.5-29 0-29.9.2-.3.7-2.6 1.1-5 1.7-11.4 8.2-21.9 15-24.1 21.6-7.1 58.9 18.7 112 77.4 15.7 17.4 47.6 58.1 65.5 83.6 7.5 10.8 41.6 62.2 42.3 64 .4.8 1.4 2.5 2.3 3.7 1.5 2.1 1.5 2.2-.9 1.8-15.4-2.8-38-2.8-51.2 0-17.2 3.6-31.3 9.5-45.5 19-9 6.1-17 12.5-15.6 12.5.3 0 3.2-1.7 6.4-3.9 15.3-10.4 38.4-18.8 56.7-20.6 6.6-.7 23.3-.7 28-.1 9.1 1.3 11.7 1.7 18.5 3.5 13.8 3.5 13.1 2.9 23.2 20.1 5 8.5 11 18.9 13.3 23 2.3 4.1 5.1 9.1 6.2 11 5.3 9.4 9.5 17.2 13.1 23.9l3.9 7.3-4.8 14.7c-18.2 55.1-33.7 99.3-35.2 100.3-3.7 2.3-77.2 25.9-93.1 29.9-4.3 1.1-4.7.9-13.7-3.7-29.3-15.1-52.4-42.2-62.8-73.7-1.3-3.8-2.5-6.7-2.6-6.5-.8.8 3.8 18 7 26.3 9.1 23.8 29.5 48.6 49.3 60 1.7 1.1 3.2 2.2 3.2 2.5 0 .3-1.9 1.1-4.2 1.8-4.7 1.3-34.4 9.1-36.8 9.7-.8.1-8.2 1.9-16.5 3.9-8.2 1.9-16.1 3.7-17.5 4-1.4.2-7.5 1.5-13.5 2.9-6.1 1.4-13 2.8-15.5 3.2-2.4.4-4.7.8-5 1-.3.2-2.6.6-5 1-2.5.3-6.4 1-8.7 1.6-2.2.5-8.5 1.6-14 2.5-13.3 2.1-16.3 2.6-31.8 4.8-6 .8-14.4 1.8-18.5 2.1-4.1.4-8 .8-8.6 1-3 .9-26.7 2-43.9 2-30.2 0-45.4-2.3-57.4-8.5-7.2-3.8-8.4-4.8-10.4-8.7-3.2-6.2-1.6-13.1 5.4-23.5 15.7-23.3 59.3-54.6 122.9-88.3 9.6-5.1 21.1-11.1 25.5-13.3 4.4-2.3 7.7-4.1 7.4-4.2-.8 0-22.1 8.7-29.9 12.3-3 1.4-10.7 4.8-17 7.7-10.4 4.6-29.8 14.5-45.5 23-10.5 5.8-31.1 18.8-39.7 25.2-14.7 10.8-21.7 17.1-30.8 27.8-15.5 18.2-16.7 36.1-3.2 48.1 7.1 6.4 21.7 12.4 34.7 14.5 2.2.3 4.2.7 4.5.9.3.2 4.1.6 8.5 1s8.9.9 10 1.1c5.8 1.2 48.6.4 65.5-1.2 3.6-.3 8.1-.7 10.1-.9 7.2-.6 16.5-1.6 18.9-2 2.8-.5 8.4-1.2 15-2 2.5-.3 5.6-.7 7-1 1.4-.2 3.9-.7 5.5-.9 17.9-2.9 23.1-3.8 29.9-5.1 4.4-.8 9.3-1.8 11-2.1 1.7-.3 8.5-1.7 15.1-3.1 6.6-1.4 12.7-2.6 13.5-2.8 15.6-3.2 86.6-21.5 89-23 .4-.2 3.1.2 6.1 1 17.7 4.7 42.3 6.3 56.3 3.6 3.3-.6 6.1-1 6.2-.8.1.1-1.1 3.8-2.8 8.2-1.7 4.4-4.8 12.7-7 18.5-2.2 5.8-4.3 11.4-4.8 12.5-.5 1.1-5.2 13-10.5 26.5s-10.3 25.8-11 27.5c-.7 1.6-6.4 15.1-12.5 30-6.2 14.8-12.5 29.7-14 33-4.9 10.8-6.7 14.8-13.3 29.5-11.6 25.9-30.2 64.3-42.5 87.5-6.1 11.6-22.4 40.3-25.2 44.5-1 1.4-5.6 8.4-10.3 15.7-25.2 38.3-45.2 53.8-52.2 40.3-4.6-8.8-6.8-21.7-6.9-40.5 0-10.2 1.3-39.5 1.8-40.5.2-.3.7-4.6 1-9.5.4-5 .9-10.4 1.1-12 .2-1.7.9-6.4 1.4-10.5.6-4.1 1.3-9.5 1.6-12 .3-2.5.8-5.6 1-7 .3-1.4.7-4.1 1-6 .3-1.9.7-4.6 1-6 .2-1.4.7-4.3 1-6.5.3-2.2 1-6.7 1.6-10 .6-3.3 1.3-7.1 1.5-8.5 1.4-8.1 6.7-36.1 7.4-39 .5-1.9 1.1-5.3 1.5-7.5.3-2.2.7-4.7 1-5.5.2-.8.6-2.6.9-4 .2-1.4 1.2-5.9 2.1-10 .9-4.1 1.9-8.6 2.1-10 .3-1.4 1.8-8.3 3.5-15.4 1.6-7.1 2.7-13.1 2.4-13.4-.3-.3-.5-.1-.5.4s-.9 4-2 7.9c-1.8 6.2-5.6 20.4-6.6 24.5-.2.8-1.5 5.8-2.9 11-2.4 8.9-7.2 28.7-11.6 48-4.3 18.3-10.6 50.3-13.4 68-1.5 9.2-2.7 16.9-3 19-.1 1.4-.6 4.7-1 7.5-1.2 9.3-1.4 11-2 18-1.2 13-1.3 15-1.4 30v17c.1 4.1 2.8 18.2 4.4 22.5 6.3 17.7 20.4 21.4 37 10 39.3-27.1 108.1-151.9 172.4-312.5 5.1-12.7 9.6-23.7 10-24.5.4-.8 5.2-13.1 10.6-27.3l9.9-25.8 7.5-3.5c18.6-8.6 35.6-21.8 47.8-37.3 2-2.5 4-5 4.5-5.5.4-.5 9.1 3.9 19.7 10l19.1 10.9 4.5 12.5c14.1 38.4 24.1 73.8 28.1 99.5 2.4 15.8 2.7 38.1.5 47.1-2.2 9.1-6.1 15.7-11.3 19.2-3.4 2.2-5.5 2.8-11.7 3-10.7.5-22.1-3.4-39.1-13.7-6.4-3.8-29.3-20.3-32.6-23.5-.6-.6-3.5-3.1-6.4-5.6-2.9-2.5-6.2-5.4-7.3-6.5l-1.9-2 1 2c1.5 2.8 20.4 21 31.5 30.2 29 24.2 52.7 32.5 69.3 24.3 17.1-8.4 23.8-30.3 21-69-.3-4.7-.8-9.4-1-10.5-.2-1.1-.7-4.3-1-7-2.2-16.9-11.7-56.6-18.9-78.5-1.4-4.1-2.4-7.6-2.2-7.8.2-.2 9.7 5 21.2 11.7 11.4 6.6 22 12.3 23.6 12.6 5.9 1.5 10.8-4.9 8.3-10.8-1.2-2.9-4.5-4.8-30.6-18.2-28.2-14.5-29.4-15.1-31.1-19-1-2.2-2.1-5.2-2.4-6.7-.7-2.9.2-2.5 39.5 15.9 4.1 1.9 12.9 6 19.5 9 6.6 3.1 15.4 7.1 19.5 9 4.1 1.9 27.8 12.9 52.5 24.3 24.8 11.4 48.8 22.6 53.5 24.8 4.7 2.2 13.5 6.2 19.5 9 6.1 2.7 15.5 7.1 21 9.7 26.9 12.6 31.5 14.5 35.4 14.5 7.1 0 12.4-6.7 11.3-14.2-.8-5.6-4.6-8-28.7-17.7-12.6-5.1-24.6-10-26.5-10.8-1.9-.8-4.4-1.9-5.5-2.3-5.2-2-11.4-4.5-15-6.1-2.2-.9-10.1-4.2-17.5-7.2-40-16.1-61.8-25-64.5-26.2-1.6-.7-12.7-5.2-24.5-10s-22.8-9.3-24.5-10c-3.8-1.6-18.5-7.6-48.2-19.6-21.4-8.7-23.3-9.6-24.7-12.7-1.9-4-2-5.2-.3-5.2.7 0 17 5.8 36.2 12.9 19.3 7 50.1 18.3 68.5 25 18.4 6.7 34.4 12.6 35.5 13.1 2.1.9 11.7 4.5 61 22.5 16 5.8 37.3 13.7 47.5 17.5 10.2 3.7 48.2 17.7 84.5 31s66.9 24.5 68 25c1.1.5 15.7 5.9 32.5 12 16.8 6.2 38.4 14.1 48 17.7 18.5 6.9 23.3 7.7 28.8 4.9 4.4-2.3 7.9-7.4 8.7-12.4.8-5.5-2.3-12.3-6.8-15.1-1.8-1-14-5.3-27.2-9.6-22.9-7.3-31.2-10-62.8-20.1-17.1-5.4-34-10.9-66.7-21.4-30-9.6-44.9-14.4-62-19.8-6.9-2.2-30.9-9.9-53.5-17.2-22.5-7.2-51.3-16.5-64-20.5-12.6-4-29.5-9.4-37.5-12-8-2.6-18.5-6-23.5-7.5-4.9-1.5-16-5.1-24.6-7.9-23.9-7.7-65.8-21.1-71.1-22.7-2.7-.8-4.8-1.7-4.8-1.9 0-.7 9.8-5.5 11.3-5.5.7 0 14.1 3.5 29.8 7.9 15.6 4.3 29.3 8.1 30.4 8.4 1.1.3 7.6 2.1 14.5 4 14.3 4.1 46.7 13.1 54.9 15.3 3.1.9 8.5 2.4 12.1 3.4 7.2 2 11.4 3.2 30 8.3 6.9 2 24.9 7 40 11.2 15.1 4.3 29.1 7.8 31.1 7.7 7 0 12.1-5.6 11.4-12.6-.4-4.8-2.8-8.3-6.8-10.1-2.5-1.1-41.9-10.4-54.7-12.9-1.4-.2-19.4-4.3-40-9-20.6-4.8-44.5-10.2-53-12.1-15.2-3.4-46.7-10.5-64.5-14.6-4.9-1.1-10.1-2.3-11.5-2.5-6.6-1.2-6.5-1.5 1-5.7l7.3-4 6.6 1.1c9.7 1.6 39.4 6.9 48.6 8.6 4.4.9 9.6 1.8 11.5 2.1 1.9.3 9.8 1.7 17.5 3.1 7.7 1.4 15.1 2.8 16.5 3 1.4.3 4.9.9 7.9 1.4 7.6 1.4 9.5 1.3 11.9-.8 5.9-5.2 2.5-14-5.7-14.7-2.4-.2-8.2-1-15.6-2-13.4-2-39.9-5.6-43.5-6-2.5-.3-5.6-.7-7-1-1.4-.3-4.9-.7-7.8-1.1-2.9-.3-6.1-.7-7.1-.9-1-.2-4-.6-6.7-1-2.7-.3-5.8-.8-6.9-1-1.1-.2-2.2-.4-2.4-.4-.2-.1 3.4-2.4 8-5.2 32-19.5 56-38.2 70.6-55.4 19.5-22.9 18.6-43.2-2.5-53.9-12.5-6.3-28.7-9-54.7-9.1-17.4 0-37.4 1-38.4 2-.2.3 7.4.5 17 .6 9.6.1 18.5.2 19.9.3 4.5.5 15.4 1.7 20 2.2 8.3 1.1 23.4 5.4 29.6 8.4 7.1 3.5 12.8 9.3 14.2 14.3 4.4 15.8-20.4 41.7-66.3 69.4-21.5 13-41.5 23.4-44.2 22.9-1-.2-6.1-.9-11.3-1.6-5.2-.7-10.2-1.3-11-1.5-.8-.1-4-.6-7-1-3-.3-6.6-.8-8-1-1.4-.2-4.5-.6-7-1-2.5-.3-5.6-.8-7-1-1.4-.2-5-.7-8-1.1-3-.3-5.7-.8-6-1.1-.3-.2-.5-3.5-.6-7.1-.3-21-5.4-41.6-14.8-59.8l-4.1-8.1 1.8-5.9c1-3.2 2-6.6 2.2-7.4.3-.8 3.4-11.4 7-23.5s8.8-30.1 11.5-40c2.7-9.9 5.4-19.4 5.9-21 2.1-6.7 20.8-80.8 22.6-89.6.5-2.5 4.6-21.2 5-22.9.5-2 8.2-39.7 8.9-43.5 1-5 4.6-25.8 5.2-29.4.3-1.8.7-4.1.9-5 .3-1.8 1.4-8.9 2.1-13.6.2-1.7.6-4.1.9-5.5.2-1.4.7-4.8 1-7.5.3-2.8 1-8.2 1.5-12 1-7.4 1.5-12.8 2.7-28.5.9-12.3 1-42.8.1-50.6-3.4-29.7-15.3-42.2-33.2-34.9zm-69.5 433.2l5 6.2-1.2 4.5c-.6 2.5-1.5 4.6-1.9 4.6-.4 0-2.2-2.7-4-6.1-1.7-3.4-4.1-7.7-5.2-9.8-1.2-2-3.7-6.5-5.6-10.1l-3.5-6.5 5.7 5.5c3.2 3 8 8.3 10.7 11.7zm23.5 49.5c1.3 7.3 2.1 12.8 1.8 12.5-.2-.2-2.9-5.4-5.9-11.7-5.7-11.6-5.9-12.5-3.4-18.7 1.1-2.7 1.3-2.5 4 5.9 1.6 4.8 3.1 10.2 3.5 12zm-3 46.4l3.2 7.1-3.7 10.9c-2.1 6-5.2 13.6-6.9 17l-3.1 6.1-16.2 6.1c-9 3.4-16.5 6-16.6 5.8-.2-.2 3.4-11.3 8-24.7 4.7-13.4 11.1-32.2 14.2-41.8l5.8-17.4 6 11.9c3.3 6.5 7.5 15.1 9.3 19zm26.5-3.6c3 .5 7 1.2 8.9 1.5 1.9.4 8 1.5 13.5 2.5s12 2.2 14.5 2.6c2.5.4 4.8.9 5.3 1 .4.1 1.5.2 2.5.3.9.1-1.4 1.8-5.3 3.8l-6.9 3.5-7.1-1.3c-3.8-.7-7.4-1.4-8-1.5-.5-.1-5.5-1.3-11-2.5s-10.4-2.6-10.9-3c-.8-.7-1.8-7.9-1.1-7.9.1 0 2.6.4 5.6 1zm8 21.1c1.9.6 4.1 1.3 4.9 1.5.9.3-.2 1.3-2.9 2.5-2.4 1-4.6 1.9-5 1.9-.4 0-1.5-1.6-2.4-3.5-1.6-3.3-1.6-3.5.2-3.5 1 0 3.3.5 5.2 1.1zM828.5 739c.3.5.1 1-.4 1-.6 0-1.1-.5-1.1-1 0-.6.2-1 .4-1 .3 0 .8.4 1.1 1zm6.4 19.1c1.7.6 3.1 1.5 3.1 2.1 0 .5.9 3 2.1 5.5 1.1 2.5 1.8 4.7 1.6 4.9-.5.5-18.7-8.9-18.7-9.7 0-.7 6.1-3.7 7.6-3.8.6-.1 2.5.4 4.3 1zm-56.4 22.4c-4.1 3.6-17.9 13.5-18.8 13.5-.3 0 .2-2.2 1.1-5 1.6-4.7 1.9-5 7.7-7 3.3-1.1 7.4-2.7 9-3.5 4.9-2.3 5.2-1.6 1 2zM740 793.9c0 .4-.9 3.1-2.1 5.8-2 5-2.1 5-8.7 6.6-12.5 3-25.8 4.3-38.7 3.7-1.9 0 6.2-3.2 21.5-8.4 24.9-8.4 28-9.3 28-7.7z"/><path d="M471.7 190.6c-.1.1-3.8.4-8.2.7-9 .7-12 1.1-18.9 2.7-6.3 1.4-20.7 6.9-22.7 8.6-.8.8-1.9 1.4-2.3 1.4-2.2 0-16.3 10.6-23.1 17.5-9.7 9.7-14.3 16.4-30.8 45.5-1 1.9-10.4 18.1-20.7 36-10.4 17.9-19.6 34-20.7 35.7-1 1.8-6.8 11.9-12.9 22.5-6.2 10.6-18.6 32.1-27.6 47.8-9 15.7-26 45.1-37.7 65.3-11.7 20.3-21.1 37-21 37.1 1.4 1.2 15.3 4.6 16 3.9.6-.7 85.6-147.5 91-157.3 1.1-1.9 2.9-5.1 4-7 1.2-1.9 8.1-13.9 15.4-26.5 7.3-12.7 16.5-28.6 20.5-35.5 4-6.9 8.3-14.4 9.6-16.7 14.5-25.6 19-32.1 27.2-40.1 13.4-13.1 32.4-22.1 51.7-24.6 2.2-.3 77.6-.5 167.6-.6h163.5l6.2-7.7c3.4-4.2 6-7.8 5.8-8.1-.4-.3-331.4-.9-331.9-.6zM930.3 192.6c.3 1.1 1.3 4.6 2.3 7.9.9 3.3 1.8 6.1 1.9 6.3.2.2 2.3.6 4.7.8 5.3.6 16.6 3.1 19.3 4.3 1.1.5 4.5 1.9 7.5 3.2 11.6 4.9 24.8 15.2 33.2 25.9 2.9 3.7 22.4 36.4 34 57 2.3 4.1 26.1 45.3 67.6 117 9 15.7 17.3 30.1 18.4 32 8.1 14.1 14.8 25.7 18.8 32.5 2.6 4.4 5.9 10 7.2 12.5 1.4 2.5 10.7 18.7 20.8 36 10 17.3 19.4 33.5 20.7 36 1.4 2.5 4 7 5.8 10 1.8 3 9.2 15.8 16.5 28.5 7.3 12.6 16.7 28.8 20.8 36 14.1 24.4 17.2 33.6 17.7 52 .2 8.7-.2 14.4-1.5 20.5-3.2 15.3-2.8 14.4-42.3 82.7-10.3 17.7-18.7 32.7-18.7 33.2 0 .6 1.2 1.3 2.8 1.7 1.5.3 4.1.9 5.7 1.4 6.8 1.8 7.6 1.9 8.3.2.3-.9 3.2-6 6.3-11.4 3.1-5.3 7-12 8.7-15 3.3-6 18.9-33 26.5-45.8 11.3-19.3 16.4-30.6 18.2-40.9.3-1.9.8-3.7 1-4.1.4-.7 1.7-14.3 1.8-18.9.4-17.3-5.4-38.1-15.1-54.8-2.2-3.8-4.9-8.5-6.1-10.6-3.1-5.6-4.7-8.3-18-31.1-6.6-11.5-12.1-21.1-12.1-21.3 0-.3-.8-1.7-1.9-3.1-1-1.5-2.9-4.7-4.3-7.2s-11-19.1-21.3-37-19.7-34.1-20.8-36c-1-1.9-5.2-9.1-9.2-16-4-6.9-13.1-22.6-20.3-35-7.1-12.4-15.5-27-18.7-32.5-3.2-5.5-9.2-15.9-13.3-23-4.1-7.2-8.3-14.4-9.2-16-22.6-39.1-31.6-54.7-33.5-58-2.2-3.9-8.4-14.6-31.3-54.2-14.3-24.8-15.9-27.1-26.2-37.4-17.3-17.2-40.8-28-64.4-29.6-8.3-.5-8.8-.5-8.3 1.3z"/><path d="M45.5 465c2.8 1.2 21.7 7.9 94 33.5 29 10.3 74.1 26.3 79.5 28.3 3 1.1 16.3 5.9 29.5 10.5 13.2 4.7 34.4 12.2 47 16.7 12.7 4.5 33.8 12 47 16.7 20.4 7.3 37.5 13.4 43.5 15.6.8.3 16.1 5.7 34 12.1 114.1 40.4 134.7 47.7 136.5 48.6 1.8.8 1.7.9-.5.5-2.3-.4-55.6-8.2-62.3-9-1.5-.2-4.4-.7-6.5-.9-2-.3-5.5-.8-7.7-1.1-2.2-.3-5.3-.7-7-1-6.2-1.1-9.1-1.5-13.5-2-2.5-.3-5.6-.7-7-1-1.4-.3-4.5-.8-7-1.1-2.5-.3-8.5-1.2-13.5-1.9-4.9-.8-11-1.7-13.5-2-2.5-.3-5.6-.7-7-1-2.4-.4-8.1-1.2-14.3-2.1-6.5-.8-15.6-2.1-19.7-2.9-1.4-.2-5-.7-8-1.1-3-.3-5.7-.7-6-.9-.3-.2-3.4-.6-7-1s-6.7-.8-7-1c-.3-.1-3-.6-6.1-.9-3.1-.4-6.5-.8-7.5-1-1.1-.2-4.1-.7-6.9-1-2.7-.4-6.1-.8-7.5-1.1-2.6-.4-6.3-1-14.5-2.1-2.7-.3-5.2-.8-5.5-.9-.3-.2-3.7-.6-7.5-1-3.9-.4-7.3-.9-7.6-1.1-.3-.2-2.8-.6-5.5-.9-2.7-.3-8.6-1.2-13.1-1.9-4.6-.7-8.3-1-8.3-.6s2.1 1.1 4.8 1.4c2.6.4 5.4.9 6.2 1.1.8.1 7.9 1.5 15.7 2.9 7.9 1.5 15.1 2.9 16 3 4.1.8 19 3.6 21.8 4 1.7.3 5.5 1 8.5 1.6 3 .6 7.1 1.3 9 1.6 1.9.3 5.1.9 7 1.4 2 .5 5.1 1.2 7 1.4 1.9.3 8.5 1.4 14.5 2.6 6.1 1.1 14.4 2.7 18.5 3.4 4.1.8 18.8 3.5 32.5 6.1 13.8 2.5 28.6 5.3 33 6.1 11.5 2.1 21.2 3.9 36.5 6.8 33.4 6.2 41.7 7.7 44 8.1 1.4.2 5 .9 8 1.5s6.4 1.3 7.5 1.5c17.6 2.8 26.4 5 20.8 5.1-5.5.2-29.1 1.7-30.6 2-1 .1-5.4.4-9.7.6-9 .3-10.8 1.4-2.7 1.7 2.8.1 7.5.4 10.2.6 5.4.5 15.3 1.1 30.5 2 9.6.6 11.8.8 31 1.9 5.8.4 13 .9 16 1.1 22.4 1.7 28 1.7 30.4.1 2.6-1.6 4.1-6.3 3.2-9.4-.4-1-3.4-4.2-6.9-7-3.4-2.8-7.3-6.1-8.7-7.4-1.4-1.3-9-7.9-17-14.8s-15.6-13.4-17-14.6c-2.5-2.2-31.4-27.3-42.5-36.9-3.3-2.9-11.8-10.3-19-16.5-7.1-6.2-14.8-12.8-17-14.8-2.2-1.9-5.3-4.7-7-6.1l-3-2.6 2.5 2.9c2.9 3.4 3.5 4 33 34.6 12.4 12.8 23 23.8 23.5 24.4.6.6 6.2 6.4 12.5 12.9l11.5 11.9-6-3.4c-3.3-1.9-24.4-14.1-46.8-27.2-22.5-13-42.3-24.5-44-25.5-1.8-1-17.2-9.9-34.2-19.9-17.1-9.9-32.6-18.9-34.5-20-1.9-1.1-10-5.8-18-10.4-22.3-13.1-22.6-13.2-21.5-12.1.6.5 7.1 5 14.5 9.8 7.4 4.9 19.4 12.7 26.5 17.4 7.2 4.7 13.8 9 14.7 9.6 2.7 1.6 53.1 34.6 99.3 65.1 8.3 5.4 15.4 10.1 15.8 10.3 2 .8 23.1 15.1 22.5 15.1-.4 0-6.1-1.8-12.5-3.9-13.1-4.4-56.3-18.6-131.3-43.1-27.2-8.9-56-18.4-64-21-8-2.6-26.9-8.8-42-13.8-15.1-4.9-53.8-17.6-86-28.1-32.2-10.6-61.6-20.3-65.5-21.6-3.8-1.3-27.2-9-52-17.1-24.7-8-53.7-17.5-64.4-21-17.7-5.9-23.7-7.6-18.6-5.4z"/><path d="M209.4 537.7c-.6 1-2.6 4.5-4.4 7.8-1.8 3.3-3.6 6.4-4 7-.8 1-31.6 54.5-48.1 83.3-8.6 15.2-13.8 28.3-15.5 39.2-.3 2.5-.8 5.4-1.1 6.5-.7 3.3-.6 18.6.2 24.5.3 3 1.5 9 2.6 13.2 3.4 13.5 5.1 17.1 24.9 51.3 24.5 42.4 28.1 48.6 30.2 52.3 1 1.8 5.8 10.2 10.7 18.5 4.8 8.4 9.9 17.2 11.3 19.7 4.2 7.6 27.7 48.1 31.4 54.2 1.9 3.1 3.4 5.9 3.4 6.2 0 .4.9 1.9 1.9 3.4 1 1.5 13.1 22.3 26.9 46.2 29.4 51.1 25.3 43.9 42.7 74.1 7.7 13.3 15.3 26.5 16.9 29.3 22.2 39.1 43.9 75.6 48.3 81.4 16.2 21.2 43.1 36.5 69.8 39.6 4.2.5 23.7 1 25.6.7.4-.1.2-2.2-.3-4.9-.5-2.6-1.2-6.1-1.5-7.7-.3-1.7-.6-3.1-.6-3.1-.1-.1-5.6-.4-12.2-.7-6.6-.4-13.5-1.1-15.2-1.6-1.8-.5-3.3-.8-3.3-.6 0 .2-3.2-.7-7.1-2-13.1-4.5-25.3-12-35-21.5-4.7-4.6-12.9-15.3-12.9-16.8 0-.7-.4-1.2-1-1.2-.5 0-1-.4-1-.9s-7.1-13.2-15.8-28.2c-20.4-35.2-53.4-92.4-56-96.9-1.1-1.9-15.3-26.7-31.7-55-56.6-98-89.3-154.5-91.2-158-1.1-1.9-9.6-16.6-18.8-32.5-24.3-41.9-26.5-47.3-27-68.3-.5-21.3 2.5-31.1 17.8-57.8 17.9-31.1 37.6-65.3 46.8-81.1 4.9-8.4 8.9-15.6 8.9-16.1 0-.8-12.2-5.2-14.5-5.2-.6 0-1.5.8-2.1 1.7zM251.5 604c.3.5.8 1 1.1 1 .2 0 .4-.5.4-1 0-.6-.5-1-1.1-1-.5 0-.7.4-.4 1zM254.8 604.7c.6.2 1.8.2 2.5 0 .6-.3.1-.5-1.3-.5-1.4 0-1.9.2-1.2.5zM1133.4 915.3c-12 20.9-23.1 40-24.6 42.6-1.5 2.5-3.5 5.9-4.4 7.6-.9 1.6-14.3 24.8-29.7 51.5-15.4 26.7-29 50.3-30.2 52.5-1.2 2.2-5 8.7-8.3 14.3-3.4 5.7-6.2 10.5-6.2 10.6 0 1.2-28 48.1-30.8 51.6-9 11.4-21.8 21.2-34.7 26.7-6.2 2.7-19.4 6.1-25.5 6.7-2.5.2-78.8.5-169.5.5l-165.1.1-5.8 7.6c-3.2 4.3-5.3 7.9-4.8 8.3 1.9 1.1 344.2.4 350.7-.8 10.3-1.8 11.8-2.2 19.3-4.7 18.8-6.3 37.6-19.8 49-35.1 4-5.5 17.6-28.1 29.2-48.9 1.1-1.9 6-10.4 10.9-18.7 4.8-8.4 19.9-34.6 33.6-58.2 13.6-23.7 26-45 27.4-47.5 1.5-2.5 3-5.2 3.4-6 .4-.8 1.6-3 2.8-4.9 2-3.4 24.1-41.4 40.8-70.6 5.1-8.8 9.3-16.3 9.4-16.8.1-.5-3.2-2.1-7.4-3.6l-7.5-2.8-22 38z"/></svg>